<?xml version="1.0" encoding="UTF-8"?>
<svg width="213px" height="45px" viewBox="0 0 213 45" version="1.1" xmlns="http://www.w3.org/2000/svg" xmlns:xlink="http://www.w3.org/1999/xlink">
    <title>logo</title>
    <g id="页面-1" stroke="none" stroke-width="1" fill="none" fill-rule="evenodd">
        <g id="首页" transform="translate(-120.000000, -382.000000)">
            <g id="logo" transform="translate(120.000000, 382.000000)">
                <rect id="矩形" fill-opacity="0" fill="#FFFFFF" x="0" y="0" width="213" height="45"></rect>
                <g transform="translate(1.000000, 3.000000)" id="图形">
                    <rect id="矩形" fill-opacity="0" fill="#FFFFFF" x="0" y="0" width="39" height="39"></rect>
                    <g id="形状" transform="translate(0.000000, 0.942500)">
                        <path d="M18.1054741,0.798288989 C18.2791215,0.798288989 18.4472217,0.812149915 18.608903,0.838825715 L18.608903,0.798288989 L24.4512821,0.798288989 C24.8921649,0.798288989 25.1900128,1.15569514 25.1165439,1.59657798 L23.9192999,8.78117888 C23.8458311,9.22206171 23.4288666,9.57946787 22.9879838,9.57946787 L21.3029312,9.57946787 C20.4560505,9.57946787 19.733302,10.1917436 19.5940971,11.0271052 L15.3789235,36.322149 C15.3054546,36.7630318 14.8884902,37.120438 14.4476074,37.120438 L7.26300647,37.120438 C6.82212364,37.120438 6.52427575,36.7630318 6.5977446,36.322149 L10.7880987,11.1760458 C10.9350364,10.2942802 10.3393406,9.57946787 9.45757495,9.57946787 L0.676396078,9.57946787 C0.235513243,9.57946787 -0.0623346434,9.22206171 0.0111342032,8.78117888 L1.20837823,1.59657798 C1.28184708,1.15569514 1.6988115,0.798288989 2.13969434,0.798288989 L18.1054741,0.798288989 Z M35.0577358,13.1717683 C35.9395015,13.1717683 36.5351972,13.8865806 36.3882595,14.7683463 L32.7965275,36.322149 C32.7230586,36.7630318 32.3060942,37.120438 31.8652114,37.120438 L24.6806105,37.120438 C24.2397276,37.120438 23.9418797,36.7630318 24.0153486,36.322149 L27.6070807,14.7683463 C27.7540184,13.8865806 28.5879472,13.1717683 29.4697129,13.1717683 L35.0577358,13.1717683 Z" fill="#286BFF"></path>
                        <path d="M32.874073,10.3777569 C35.7398114,10.3777569 38.4500802,8.05461685 38.9276277,5.18887843 C39.4051752,2.32314 37.4691639,0 34.6034255,0 C31.7376871,0 29.0274183,2.32314 28.5498708,5.18887843 C28.0723233,8.05461685 30.0083346,10.3777569 32.874073,10.3777569 Z" id="椭圆形" fill="#F02929"></path>
                    </g>
                </g>
                <g id="天河云" transform="translate(48.870000, 5.405000)" fill="#0F0F11" fill-rule="nonzero">
                    <path d="M8.085,1.935 C7.945,2.865 7.81,3.695 7.68,4.425 C7.68,4.395 7.66,4.49 7.62,4.71 L12.975,4.71 L12.795,6.18 L7.71,6.18 C8.34,7.4 9.075,8.48 9.915,9.42 C10.755,10.36 11.715,11.23 12.795,12.03 L11.25,12.84 C9.29,11.18 7.78,9.33 6.72,7.29 C6.18,8.37 5.4675,9.3625 4.5825,10.2675 C3.6975,11.1725 2.635,12.03 1.395,12.84 L0,12.015 C1.5,11.005 2.69,10.035 3.57,9.105 C4.46,8.185 5.125,7.21 5.565,6.18 L0.9,6.18 L1.05,4.71 L6.03,4.71 L6.09,4.41 C6.23,3.64 6.35,2.955 6.45,2.355 C6.49,2.145 6.515,2.005 6.525,1.935 L1.995,1.935 L2.145,0.465 L12.48,0.465 L12.3,1.935 L8.085,1.935 Z" id="路径"></path>
                    <path d="M16.725,0 L19.305,1.47 L19.11,3.06 L16.545,1.575 L16.725,0 Z M28.275,0.54 L28.11,1.935 L27.345,1.935 L26.325,11.445 C26.275,11.885 26.16,12.2 25.98,12.39 C25.8,12.58 25.51,12.675 25.11,12.675 C24.94,12.675 24.75,12.66 24.54,12.63 C24.15,12.58 23.755,12.505 23.355,12.405 C22.825,12.275 22.425,12.16 22.155,12.06 L22.29,10.68 C22.99,10.9 23.73,11.085 24.51,11.235 C24.55,11.245 24.605,11.25 24.675,11.25 C24.745,11.25 24.795,11.23 24.825,11.19 C24.855,11.15 24.88,11.085 24.9,10.995 L25.83,1.935 L19.695,1.935 L19.86,0.54 L28.275,0.54 Z M16.005,3.075 L18.54,4.59 L18.36,6.165 L15.795,4.65 L16.005,3.075 Z M23.82,9.15 L19.215,9.15 L19.77,4.575 C19.82,4.115 19.945,3.785 20.145,3.585 C20.345,3.385 20.665,3.285 21.105,3.285 L23.13,3.285 C23.94,3.285 24.345,3.67 24.345,4.44 C24.345,4.57 24.34,4.665 24.33,4.725 L23.82,9.15 Z M20.685,7.92 L22.65,7.92 L23.01,4.515 L21.09,4.515 L20.685,7.92 Z M18.54,7.26 L18.03,8.67 C17.63,9.79 17.285,10.7 16.995,11.4 C16.755,11.97 16.585,12.355 16.485,12.555 L14.925,12.555 C15.805,10.525 16.51,8.76 17.04,7.26 L18.54,7.26 Z" id="形状"></path>
                    <path d="M32.415,0.495 L41.88,0.495 L41.715,1.89 L32.25,1.89 L32.415,0.495 Z M39.795,11.445 C37.145,11.765 34.66,11.96 32.34,12.03 C32.08,12.04 31.8575,11.9975 31.6725,11.9025 C31.4875,11.8075 31.35,11.68 31.26,11.52 C31.2,11.41 31.17,11.295 31.17,11.175 C31.17,10.895 31.29,10.615 31.53,10.335 C32.69,8.935 33.745,7.49 34.695,6 L30.765,6 L30.945,4.56 L42.87,4.56 L42.69,6 L36.48,6 C35.53,7.52 34.455,9.035 33.255,10.545 C33.775,10.535 34.73,10.48 36.12,10.38 C37.08,10.31 38.12,10.2 39.24,10.05 L38.13,7.275 L39.66,7.275 L41.835,12.315 L40.155,12.315 L39.795,11.445 Z" id="形状"></path>
                </g>
                <g id="私有弹性云计算软件平台" transform="translate(48.540000, 26.120000)" fill="#286BFF" fill-rule="nonzero">
                    <path d="M11.82,6.39 L13.2,12.84 L11.7,12.84 L11.52,11.925 C9.97,12.145 8.47,12.32 7.02,12.45 C6.94,12.46 6.825,12.465 6.675,12.465 C6.055,12.465 5.745,12.24 5.745,11.79 C5.745,11.59 5.805,11.34 5.925,11.04 C6.695,9.12 7.325,7.435 7.815,5.985 C8.375,4.325 8.945,2.45 9.525,0.36 L11.145,0.36 C10.375,2.87 9.75,4.83 9.27,6.24 C8.85,7.48 8.285,9.055 7.575,10.965 C8.655,10.885 9.875,10.735 11.235,10.515 L10.425,6.39 L11.82,6.39 Z M1.59,0.96 C3.59,0.82 5.415,0.63 7.065,0.39 L6.93,1.695 L6.63,1.74 C5.87,1.84 5.38,1.9 5.16,1.92 L4.905,4.005 L6.96,4.005 L6.795,5.28 L4.74,5.28 L4.725,5.49 C5.715,6.56 6.41,7.335 6.81,7.815 L5.76,8.715 C5.4,8.175 4.99,7.615 4.53,7.035 L3.81,12.93 L2.4,12.93 L3.06,7.47 C2.56,8.3 1.905,9.2 1.095,10.17 L0,9.435 C1.29,8.005 2.315,6.62 3.075,5.28 L0.885,5.28 L1.05,4.005 L3.48,4.005 L3.72,2.07 C2.86,2.13 2.245,2.17 1.875,2.19 L1.44,2.22 L1.59,0.96 Z" id="形状"></path>
                    <path d="M15.375,7.005 C17.295,5.765 18.805,4.35 19.905,2.76 L16.5,2.76 L16.65,1.41 L20.715,1.41 C20.935,0.96 21.13,0.515 21.3,0.075 L22.92,0.075 C22.7,0.635 22.515,1.08 22.365,1.41 L28.56,1.41 L28.395,2.76 L21.645,2.76 C21.515,2.99 21.245,3.395 20.835,3.975 L25.83,3.975 C26.22,3.975 26.515,4.07 26.715,4.26 C26.915,4.45 27.015,4.72 27.015,5.07 C27.015,5.2 27.01,5.3 27,5.37 L26.37,11.64 C26.32,12.1 26.195,12.44 25.995,12.66 C25.795,12.88 25.5,12.99 25.11,12.99 C24.72,12.99 24.23,12.925 23.64,12.795 C23.17,12.695 22.795,12.595 22.515,12.495 L22.665,11.25 C23.225,11.41 23.88,11.545 24.63,11.655 L24.69,11.655 C24.77,11.655 24.8275,11.6375 24.8625,11.6025 C24.8975,11.5675 24.925,11.5 24.945,11.4 L25.065,10.08 L19.365,10.08 L19.05,12.87 L17.565,12.87 L18.285,6.63 C17.845,7 17.33,7.385 16.74,7.785 L15.375,7.005 Z M25.53,5.235 L19.92,5.235 L19.77,6.465 L25.41,6.465 L25.53,5.235 Z M25.29,7.665 L19.635,7.665 L19.5,8.88 L25.185,8.88 L25.29,7.665 Z" id="形状"></path>
                    <path d="M43.335,9.09 L43.185,10.365 L39.555,10.365 L39.255,13.005 L37.89,13.005 L38.19,10.365 L34.935,10.365 L35.085,9.09 L38.34,9.09 L38.46,8.04 L35.505,8.04 L36.135,2.715 C36.185,2.385 36.3075,2.1325 36.5025,1.9575 C36.6975,1.7825 36.955,1.695 37.275,1.695 L37.725,1.695 L37.2,0.075 L38.565,0.075 L39.12,1.695 L40.47,1.695 L41.265,0.075 L42.675,0.075 L41.85,1.695 L42.225,1.695 C42.575,1.695 42.8475,1.79 43.0425,1.98 C43.2375,2.17 43.335,2.44 43.335,2.79 C43.335,2.9 43.33,2.985 43.32,3.045 L42.69,8.04 L39.825,8.04 L39.705,9.09 L43.335,9.09 Z M31.755,7.995 C31.425,7.985 31.1925,7.9175 31.0575,7.7925 C30.9225,7.6675 30.855,7.47 30.855,7.2 C30.855,7.13 30.865,6.995 30.885,6.795 L31.26,4.605 C31.36,4.035 31.665,3.75 32.175,3.75 L33.75,3.75 L33.975,1.92 L31.365,1.92 L31.5,0.66 L34.41,0.66 C34.74,0.66 34.9925,0.7525 35.1675,0.9375 C35.3425,1.1225 35.41,1.39 35.37,1.74 L34.98,5.01 L32.49,5.01 L32.22,6.75 L33.63,6.75 C34.07,6.75 34.3625,6.835 34.5075,7.005 C34.6525,7.175 34.715,7.5 34.695,7.98 C34.635,8.67 34.575,9.295 34.515,9.855 L34.32,11.43 C34.3,11.51 34.28,11.64 34.26,11.82 C34.21,12.14 34.095,12.3925 33.915,12.5775 C33.735,12.7625 33.49,12.855 33.18,12.855 C33.08,12.855 33.005,12.85 32.955,12.84 C32.535,12.79 32.13,12.72 31.74,12.63 C31.34,12.53 31.04,12.44 30.84,12.36 L30.99,11.025 C31.47,11.215 32.005,11.365 32.595,11.475 L32.7,11.49 C32.79,11.49 32.855,11.465 32.895,11.415 C32.935,11.365 32.965,11.275 32.985,11.145 L33.06,10.665 C33.14,10.025 33.205,9.43 33.255,8.88 C33.275,8.71 33.295,8.415 33.315,7.995 L31.755,7.995 Z M39.06,2.955 L37.485,2.955 L37.335,4.275 L38.91,4.275 L39.06,2.955 Z M41.775,4.275 L41.94,2.955 L40.425,2.955 L40.275,4.275 L41.775,4.275 Z M38.76,5.49 L37.185,5.49 L37.05,6.765 L38.61,6.765 L38.76,5.49 Z M40.125,5.49 L39.975,6.765 L41.46,6.765 L41.61,5.49 L40.125,5.49 Z" id="形状"></path>
                    <path d="M49.77,0.03 L48.24,12.96 L46.845,12.96 L48.345,0.03 L49.77,0.03 Z M52.905,2.76 L54.225,2.76 L54.555,0.105 L55.98,0.105 L55.665,2.76 L58.47,2.76 L58.32,4.14 L55.5,4.14 L55.2,6.675 L57.87,6.675 L57.705,8.025 L55.035,8.025 L54.63,11.43 L58.185,11.43 L58.02,12.81 L49.65,12.81 L49.8,11.43 L53.175,11.43 L53.595,8.025 L51,8.025 L51.165,6.675 L53.76,6.675 L54.06,4.14 L51.9,4.14 C51.69,4.14 51.5275,4.095 51.4125,4.005 C51.2975,3.915 51.24,3.79 51.24,3.63 C51.24,3.54 51.255,3.445 51.285,3.345 L52.095,0.84 L53.475,0.84 L52.905,2.76 Z M46.74,7.245 L45.51,7.245 L46.365,2.82 L47.55,2.82 L46.74,7.245 Z M50.82,2.82 L50.925,6.105 L49.755,6.105 L49.71,2.82 L50.82,2.82 Z" id="形状"></path>
                    <path d="M62.745,0.78 L72.21,0.78 L72.045,2.175 L62.58,2.175 L62.745,0.78 Z M70.125,11.73 C67.475,12.05 64.99,12.245 62.67,12.315 C62.41,12.325 62.1875,12.2825 62.0025,12.1875 C61.8175,12.0925 61.68,11.965 61.59,11.805 C61.53,11.695 61.5,11.58 61.5,11.46 C61.5,11.18 61.62,10.9 61.86,10.62 C63.02,9.22 64.075,7.775 65.025,6.285 L61.095,6.285 L61.275,4.845 L73.2,4.845 L73.02,6.285 L66.81,6.285 C65.86,7.805 64.785,9.32 63.585,10.83 C64.105,10.82 65.06,10.765 66.45,10.665 C67.41,10.595 68.45,10.485 69.57,10.335 L68.46,7.56 L69.99,7.56 L72.165,12.6 L70.485,12.6 L70.125,11.73 Z" id="形状"></path>
                    <path d="M85.2,5.55 L84.315,12.945 L82.785,12.945 L83.67,5.55 L80.325,5.55 L80.49,4.14 L83.835,4.14 L84.315,0.195 L85.845,0.195 L85.365,4.14 L88.545,4.14 L88.38,5.55 L85.2,5.55 Z M77.175,0.3 L80.34,1.575 L80.13,3.135 L76.98,1.86 L77.175,0.3 Z M78.51,10.14 L78.51,10.215 C78.51,10.275 78.53,10.305 78.57,10.305 C78.62,10.305 78.67,10.285 78.72,10.245 C79.53,9.725 80.195,9.24 80.715,8.79 L80.91,10.38 C80.31,10.87 79.595,11.375 78.765,11.895 C78.425,12.105 78.115,12.21 77.835,12.21 C77.655,12.21 77.505,12.165 77.385,12.075 C77.115,11.905 76.98,11.6 76.98,11.16 C76.98,11.09 76.99,10.965 77.01,10.785 L77.67,5.22 L75.795,5.22 L75.96,3.81 L78.345,3.81 C78.645,3.81 78.865,3.8875 79.005,4.0425 C79.145,4.1975 79.2,4.415 79.17,4.695 L78.51,10.14 Z" id="形状"></path>
                    <path d="M97.725,0.795 L97.62,1.83 L95.76,1.83 L96.225,2.97 L94.89,2.97 L94.47,1.83 L93.525,1.83 C93.295,2.18 92.94,2.685 92.46,3.345 L90.9,3.345 C91.48,2.525 91.88,1.95 92.1,1.62 C92.42,1.15 92.75,0.61 93.09,0 L94.605,0 L94.155,0.795 L97.725,0.795 Z M103.695,0.795 L103.59,1.83 L101.625,1.83 L102.105,3.03 L100.77,3.03 L100.335,1.83 L99.36,1.83 C99.2,2.1 98.96,2.485 98.64,2.985 L97.14,2.985 C97.85,1.935 98.445,0.94 98.925,0 L100.365,0 C100.195,0.36 100.055,0.625 99.945,0.795 L103.695,0.795 Z M101.685,8.895 L100.065,8.895 L99.975,9.69 L103.14,9.69 L103.02,10.815 L99.84,10.815 L99.57,13.08 L98.19,13.08 L98.46,10.815 L95.13,10.815 C94.91,11.295 94.59,11.7325 94.17,12.1275 C93.75,12.5225 93.195,12.9 92.505,13.26 L91.365,12.48 C91.945,12.19 92.41,11.9125 92.76,11.6475 C93.11,11.3825 93.39,11.105 93.6,10.815 L90.6,10.815 L90.735,9.69 L94.035,9.69 L94.08,9.525 C94.08,9.445 94.085,9.385 94.095,9.345 L94.125,8.895 L92.13,8.895 L92.685,4.26 C92.725,3.97 92.86,3.73 93.09,3.54 C93.32,3.35 93.585,3.255 93.885,3.255 L101.145,3.255 C101.465,3.255 101.735,3.365 101.955,3.585 C102.065,3.695 102.145,3.82 102.195,3.96 C102.245,4.1 102.26,4.245 102.24,4.395 L101.685,8.895 Z M100.89,4.26 L94.035,4.26 L93.96,4.86 L100.815,4.86 L100.89,4.26 Z M100.695,5.76 L93.855,5.76 L93.78,6.36 L100.62,6.36 L100.695,5.76 Z M93.6,7.875 L100.44,7.875 L100.515,7.26 L93.675,7.26 L93.6,7.875 Z M95.52,8.895 L95.49,9.39 L95.445,9.69 L98.595,9.69 L98.685,8.895 L95.52,8.895 Z" id="形状"></path>
                    <path d="M108.495,5.73 L108.735,3.75 L110.055,3.75 L109.815,5.73 L111.195,5.73 L111.045,7.005 L109.665,7.005 L109.485,8.475 C109.695,8.445 110,8.39 110.4,8.31 L111.225,8.145 L111.09,9.465 L110.25,9.63 C109.88,9.7 109.57,9.755 109.32,9.795 L108.96,12.885 L107.64,12.885 L107.985,10.02 C106.875,10.18 105.995,10.29 105.345,10.35 L105.48,9.045 C105.8,9.015 106.1975,8.9675 106.6725,8.9025 C107.1475,8.8375 107.505,8.79 107.745,8.76 C107.845,8.74 107.975,8.72 108.135,8.7 L108.345,7.005 L106.785,7.005 C106.495,7.005 106.275,6.9425 106.125,6.8175 C105.975,6.6925 105.9,6.525 105.9,6.315 C105.9,6.145 105.955,5.935 106.065,5.685 C106.505,4.685 106.885,3.745 107.205,2.865 L105.975,2.865 L106.125,1.575 L107.655,1.575 C107.915,0.815 108.08,0.315 108.15,0.075 L109.485,0.075 C109.385,0.445 109.225,0.945 109.005,1.575 L111.615,1.575 L111.465,2.865 L108.555,2.865 C108.045,4.165 107.66,5.12 107.4,5.73 L108.495,5.73 Z M114.735,0.12 L114.225,1.74 L117.39,1.74 C117.79,1.74 118.0825,1.8025 118.2675,1.9275 C118.4525,2.0525 118.545,2.245 118.545,2.505 C118.545,2.655 118.505,2.86 118.425,3.12 L117.6,5.73 L116.145,5.73 L117.045,3.015 L113.805,3.015 C113.485,3.945 113.165,4.77 112.845,5.49 L111.39,5.49 C111.69,4.76 112.035,3.85 112.425,2.76 C112.775,1.78 113.07,0.9 113.31,0.12 L114.735,0.12 Z M114.09,4.17 L115.47,4.17 L115.2,5.955 C115.37,7.145 115.71,8.2725 116.22,9.3375 C116.73,10.4025 117.43,11.475 118.32,12.555 L116.925,13.155 C116.355,12.405 115.87,11.6525 115.47,10.8975 C115.07,10.1425 114.74,9.345 114.48,8.505 C114.13,9.365 113.6925,10.1825 113.1675,10.9575 C112.6425,11.7325 112.065,12.435 111.435,13.065 L110.145,12.45 C112.035,10.6 113.245,8.505 113.775,6.165 L114.09,4.17 Z" id="形状"></path>
                    <path d="M133.53,8.46 L129.945,8.46 L129.495,13.065 L127.965,13.065 L128.415,8.46 L124.53,8.46 L124.695,7.065 L128.55,7.065 L128.85,4.125 L126.96,4.125 L126.3,6.075 L124.71,6.075 C125.08,5.175 125.415,4.285 125.715,3.405 C125.995,2.595 126.25,1.805 126.48,1.035 L127.89,1.035 L127.38,2.775 L128.985,2.775 L129.255,0.03 L130.77,0.03 L130.5,2.775 L133.41,2.775 L133.245,4.125 L130.365,4.125 L130.08,7.065 L133.695,7.065 L133.53,8.46 Z M125.805,0.135 C125.655,0.375 125.52,0.615 125.4,0.855 C125.36,0.925 125.315,1.005 125.265,1.095 C125.215,1.185 125.16,1.28 125.1,1.38 C124.75,1.98 124.53,2.355 124.44,2.505 L123.345,13.02 L121.845,13.02 L122.655,5.4 C122.355,5.84 122.065,6.25 121.785,6.63 L120.09,6.63 C121.49,4.72 122.865,2.555 124.215,0.135 L125.805,0.135 Z" id="形状"></path>
                    <path d="M142.02,13.02 L140.445,13.02 L141.06,8.07 L135.735,8.07 L135.9,6.63 L141.24,6.63 L141.795,2.13 L136.935,2.13 L137.1,0.75 L148.26,0.75 L148.095,2.13 L143.355,2.13 L142.8,6.63 L148.215,6.63 L148.065,8.07 L142.62,8.07 L142.02,13.02 Z M138.015,2.805 L139.44,2.805 L139.935,5.94 L138.435,5.94 L138.015,2.805 Z M145.815,5.97 L144.33,5.97 L145.545,2.835 L147.03,2.835 L145.815,5.97 Z" id="形状"></path>
                    <path d="M161.31,5.295 C158.48,5.505 155.585,5.635 152.625,5.685 C152.275,5.685 152.0025,5.62 151.8075,5.49 C151.6125,5.36 151.515,5.18 151.515,4.95 C151.515,4.65 151.69,4.34 152.04,4.02 C153.63,2.51 154.915,1.17 155.895,0 L157.845,0 C156.655,1.5 155.315,2.925 153.825,4.275 C155.675,4.265 157.95,4.155 160.65,3.945 L159.375,1.32 L160.965,1.32 L163.335,5.985 L161.655,5.985 L161.31,5.295 Z M161.46,12.765 L151.59,12.765 L152.145,8.34 C152.245,7.43 152.735,6.975 153.615,6.975 L160.785,6.975 C161.585,6.975 161.985,7.335 161.985,8.055 C161.985,8.175 161.98,8.265 161.97,8.325 L161.46,12.765 Z M153.3,11.385 L160.02,11.385 L160.395,8.295 L153.69,8.295 L153.3,11.385 Z" id="形状"></path>
                </g>
            </g>
        </g>
    </g>
</svg>