<?xml version="1.0" encoding="UTF-8"?>
<svg width="386px" height="41px" viewBox="0 0 386 41" version="1.1" xmlns="http://www.w3.org/2000/svg" xmlns:xlink="http://www.w3.org/1999/xlink">
    <title>loading</title>
    <g id="页面-1" stroke="none" stroke-width="1" fill="none" fill-rule="evenodd">
        <g id="首页" transform="translate(-120.000000, -261.000000)">
            <g id="loading" transform="translate(120.000000, 261.000000)">
                <rect id="矩形" fill-opacity="0" fill="#FFFFFF" x="0" y="0" width="386" height="41"></rect>
                <g id="图形" transform="translate(2.000000, 2.500000)">
                    <rect id="矩形" fill-opacity="0" fill="#FFFFFF" x="0" y="0" width="36" height="36"></rect>
                    <g id="形状" transform="translate(0.000000, 0.870000)">
                        <path d="M16.7127453,0.736882143 C16.8730352,0.736882143 17.0282047,0.749676845 17.177449,0.77430066 L17.177449,0.736882143 L22.5704142,0.736882143 C22.977383,0.736882143 23.2523195,1.06679552 23.1845021,1.47376429 L22.0793538,8.10570358 C22.0115364,8.51267235 21.6266461,8.84258572 21.2196774,8.84258572 L19.6642442,8.84258572 C18.8825081,8.84258572 18.2153557,9.40776332 18.0868589,10.1788664 L14.1959294,33.5281375 C14.128112,33.9351063 13.7432217,34.2650197 13.336253,34.2650197 L6.70431367,34.2650197 C6.2973449,34.2650197 6.02240839,33.9351063 6.09022578,33.5281375 L9.95824496,10.31635 C10.0938798,9.50241247 9.54400673,8.84258572 8.73006919,8.84258572 L0.62436561,8.84258572 C0.21739684,8.84258572 -0.0575396708,8.51267235 0.010277726,8.10570358 L1.11542606,1.47376429 C1.18324346,1.06679552 1.56813369,0.736882143 1.97510246,0.736882143 L16.7127453,0.736882143 Z M32.3609869,12.1585554 C33.1749244,12.1585554 33.7247975,12.8183821 33.5891627,13.6323197 L30.2737177,33.5281375 C30.2059003,33.9351063 29.82101,34.2650197 29.4140412,34.2650197 L22.782102,34.2650197 C22.3751332,34.2650197 22.1001967,33.9351063 22.1680141,33.5281375 L25.4834591,13.6323197 C25.6190939,12.8183821 26.3888743,12.1585554 27.2028119,12.1585554 L32.3609869,12.1585554 Z" fill="#286BFF"></path>
                        <path d="M30.3452982,9.57946787 C32.9905952,9.57946787 35.4923817,7.43503094 35.9331948,4.78973393 C36.3740079,2.14443693 34.5869205,0 31.9416235,0 C29.2963265,0 26.79454,2.14443693 26.3537269,4.78973393 C25.9129138,7.43503094 27.7000012,9.57946787 30.3452982,9.57946787 Z" id="椭圆形" fill="#F02929"></path>
                    </g>
                </g>
                <g id="天河云" transform="translate(47.392000, 16.448000)" fill="#0F0F11" fill-rule="nonzero">
                    <path d="M12.936,3.096 C12.712,4.584 12.496,5.912 12.288,7.08 C12.288,7.032 12.256,7.184 12.192,7.536 L20.76,7.536 L20.472,9.888 L12.336,9.888 C13.344,11.84 14.52,13.568 15.864,15.072 C17.208,16.576 18.744,17.968 20.472,19.248 L18,20.544 C14.864,17.888 12.448,14.928 10.752,11.664 C9.888,13.392 8.748,14.98 7.332,16.428 C5.916,17.876 4.216,19.248 2.232,20.544 L0,19.224 C2.4,17.608 4.304,16.056 5.712,14.568 C7.136,13.096 8.2,11.536 8.904,9.888 L1.44,9.888 L1.68,7.536 L9.648,7.536 L9.744,7.056 C9.968,5.824 10.16,4.728 10.32,3.768 C10.384,3.432 10.424,3.208 10.44,3.096 L3.192,3.096 L3.432,0.744 L19.968,0.744 L19.68,3.096 L12.936,3.096 Z" id="路径"></path>
                    <path d="M26.76,0 L30.888,2.352 L30.576,4.896 L26.472,2.52 L26.76,0 Z M45.24,0.864 L44.976,3.096 L43.752,3.096 L42.12,18.312 C42.04,19.016 41.856,19.52 41.568,19.824 C41.28,20.128 40.816,20.28 40.176,20.28 C39.904,20.28 39.6,20.256 39.264,20.208 C38.64,20.128 38.008,20.008 37.368,19.848 C36.52,19.64 35.88,19.456 35.448,19.296 L35.664,17.088 C36.784,17.44 37.968,17.736 39.216,17.976 C39.28,17.992 39.368,18 39.48,18 C39.592,18 39.672,17.968 39.72,17.904 C39.768,17.84 39.808,17.736 39.84,17.592 L41.328,3.096 L31.512,3.096 L31.776,0.864 L45.24,0.864 Z M25.608,4.92 L29.664,7.344 L29.376,9.864 L25.272,7.44 L25.608,4.92 Z M38.112,14.64 L30.744,14.64 L31.632,7.32 C31.712,6.584 31.912,6.056 32.232,5.736 C32.552,5.416 33.064,5.256 33.768,5.256 L37.008,5.256 C38.304,5.256 38.952,5.872 38.952,7.104 C38.952,7.312 38.944,7.464 38.928,7.56 L38.112,14.64 Z M33.096,12.672 L36.24,12.672 L36.816,7.224 L33.744,7.224 L33.096,12.672 Z M29.664,11.616 L28.848,13.872 C28.208,15.664 27.656,17.12 27.192,18.24 C26.808,19.152 26.536,19.768 26.376,20.088 L23.88,20.088 C25.288,16.84 26.416,14.016 27.264,11.616 L29.664,11.616 Z" id="形状"></path>
                    <path d="M51.864,0.792 L67.008,0.792 L66.744,3.024 L51.6,3.024 L51.864,0.792 Z M63.672,18.312 C59.432,18.824 55.456,19.136 51.744,19.248 C51.328,19.264 50.972,19.196 50.676,19.044 C50.38,18.892 50.16,18.688 50.016,18.432 C49.92,18.256 49.872,18.072 49.872,17.88 C49.872,17.432 50.064,16.984 50.448,16.536 C52.304,14.296 53.992,11.984 55.512,9.6 L49.224,9.6 L49.512,7.296 L68.592,7.296 L68.304,9.6 L58.368,9.6 C56.848,12.032 55.128,14.456 53.208,16.872 C54.04,16.856 55.568,16.768 57.792,16.608 C59.328,16.496 60.992,16.32 62.784,16.08 L61.008,11.64 L63.456,11.64 L66.936,19.704 L64.248,19.704 L63.672,18.312 Z" id="形状"></path>
                </g>
                <g id="私有弹性云计算软件平台" transform="translate(122.864000, 15.992000)" fill="#286BFF" fill-rule="nonzero">
                    <path d="M18.912,10.224 L21.12,20.544 L18.72,20.544 L18.432,19.08 C15.952,19.432 13.552,19.712 11.232,19.92 C11.104,19.936 10.92,19.944 10.68,19.944 C9.688,19.944 9.192,19.584 9.192,18.864 C9.192,18.544 9.288,18.144 9.48,17.664 C10.712,14.592 11.72,11.896 12.504,9.576 C13.4,6.92 14.312,3.92 15.24,0.576 L17.832,0.576 C16.6,4.592 15.6,7.728 14.832,9.984 C14.16,11.968 13.256,14.488 12.12,17.544 C13.848,17.416 15.8,17.176 17.976,16.824 L16.68,10.224 L18.912,10.224 Z M2.544,1.536 C5.744,1.312 8.664,1.008 11.304,0.624 L11.088,2.712 L10.608,2.784 C9.392,2.944 8.608,3.04 8.256,3.072 L7.848,6.408 L11.136,6.408 L10.872,8.448 L7.584,8.448 L7.56,8.784 C9.144,10.496 10.256,11.736 10.896,12.504 L9.216,13.944 C8.64,13.08 7.984,12.184 7.248,11.256 L6.096,20.688 L3.84,20.688 L4.896,11.952 C4.096,13.28 3.048,14.72 1.752,16.272 L0,15.096 C2.064,12.808 3.704,10.592 4.92,8.448 L1.416,8.448 L1.68,6.408 L5.568,6.408 L5.952,3.312 C4.576,3.408 3.592,3.472 3,3.504 L2.304,3.552 L2.544,1.536 Z" id="形状"></path>
                    <path d="M24.6,11.208 C27.672,9.224 30.088,6.96 31.848,4.416 L26.4,4.416 L26.64,2.256 L33.144,2.256 C33.496,1.536 33.808,0.824 34.08,0.12 L36.672,0.12 C36.32,1.016 36.024,1.728 35.784,2.256 L45.696,2.256 L45.432,4.416 L34.632,4.416 C34.424,4.784 33.992,5.432 33.336,6.36 L41.328,6.36 C41.952,6.36 42.424,6.512 42.744,6.816 C43.064,7.12 43.224,7.552 43.224,8.112 C43.224,8.32 43.216,8.48 43.2,8.592 L42.192,18.624 C42.112,19.36 41.912,19.904 41.592,20.256 C41.272,20.608 40.8,20.784 40.176,20.784 C39.552,20.784 38.768,20.68 37.824,20.472 C37.072,20.312 36.472,20.152 36.024,19.992 L36.264,18 C37.16,18.256 38.208,18.472 39.408,18.648 L39.504,18.648 C39.632,18.648 39.724,18.62 39.78,18.564 C39.836,18.508 39.88,18.4 39.912,18.24 L40.104,16.128 L30.984,16.128 L30.48,20.592 L28.104,20.592 L29.256,10.608 C28.552,11.2 27.728,11.816 26.784,12.456 L24.6,11.208 Z M40.848,8.376 L31.872,8.376 L31.632,10.344 L40.656,10.344 L40.848,8.376 Z M40.464,12.264 L31.416,12.264 L31.2,14.208 L40.296,14.208 L40.464,12.264 Z" id="形状"></path>
                    <path d="M69.336,14.544 L69.096,16.584 L63.288,16.584 L62.808,20.808 L60.624,20.808 L61.104,16.584 L55.896,16.584 L56.136,14.544 L61.344,14.544 L61.536,12.864 L56.808,12.864 L57.816,4.344 C57.896,3.816 58.092,3.412 58.404,3.132 C58.716,2.852 59.128,2.712 59.64,2.712 L60.36,2.712 L59.52,0.12 L61.704,0.12 L62.592,2.712 L64.752,2.712 L66.024,0.12 L68.28,0.12 L66.96,2.712 L67.56,2.712 C68.12,2.712 68.556,2.864 68.868,3.168 C69.18,3.472 69.336,3.904 69.336,4.464 C69.336,4.64 69.328,4.776 69.312,4.872 L68.304,12.864 L63.72,12.864 L63.528,14.544 L69.336,14.544 Z M50.808,12.792 C50.28,12.776 49.908,12.668 49.692,12.468 C49.476,12.268 49.368,11.952 49.368,11.52 C49.368,11.408 49.384,11.192 49.416,10.872 L50.016,7.368 C50.176,6.456 50.664,6 51.48,6 L54,6 L54.36,3.072 L50.184,3.072 L50.4,1.056 L55.056,1.056 C55.584,1.056 55.988,1.204 56.268,1.5 C56.548,1.796 56.656,2.224 56.592,2.784 L55.968,8.016 L51.984,8.016 L51.552,10.8 L53.808,10.8 C54.512,10.8 54.98,10.936 55.212,11.208 C55.444,11.48 55.544,12 55.512,12.768 C55.416,13.872 55.32,14.872 55.224,15.768 L54.912,18.288 C54.88,18.416 54.848,18.624 54.816,18.912 C54.736,19.424 54.552,19.828 54.264,20.124 C53.976,20.42 53.584,20.568 53.088,20.568 C52.928,20.568 52.808,20.56 52.728,20.544 C52.056,20.464 51.408,20.352 50.784,20.208 C50.144,20.048 49.664,19.904 49.344,19.776 L49.584,17.64 C50.352,17.944 51.208,18.184 52.152,18.36 L52.32,18.384 C52.464,18.384 52.568,18.344 52.632,18.264 C52.696,18.184 52.744,18.04 52.776,17.832 L52.896,17.064 C53.024,16.04 53.128,15.088 53.208,14.208 C53.24,13.936 53.272,13.464 53.304,12.792 L50.808,12.792 Z M62.496,4.728 L59.976,4.728 L59.736,6.84 L62.256,6.84 L62.496,4.728 Z M66.84,6.84 L67.104,4.728 L64.68,4.728 L64.44,6.84 L66.84,6.84 Z M62.016,8.784 L59.496,8.784 L59.28,10.824 L61.776,10.824 L62.016,8.784 Z M64.2,8.784 L63.96,10.824 L66.336,10.824 L66.576,8.784 L64.2,8.784 Z" id="形状"></path>
                    <path d="M79.632,0.048 L77.184,20.736 L74.952,20.736 L77.352,0.048 L79.632,0.048 Z M84.648,4.416 L86.76,4.416 L87.288,0.168 L89.568,0.168 L89.064,4.416 L93.552,4.416 L93.312,6.624 L88.8,6.624 L88.32,10.68 L92.592,10.68 L92.328,12.84 L88.056,12.84 L87.408,18.288 L93.096,18.288 L92.832,20.496 L79.44,20.496 L79.68,18.288 L85.08,18.288 L85.752,12.84 L81.6,12.84 L81.864,10.68 L86.016,10.68 L86.496,6.624 L83.04,6.624 C82.704,6.624 82.444,6.552 82.26,6.408 C82.076,6.264 81.984,6.064 81.984,5.808 C81.984,5.664 82.008,5.512 82.056,5.352 L83.352,1.344 L85.56,1.344 L84.648,4.416 Z M74.784,11.592 L72.816,11.592 L74.184,4.512 L76.08,4.512 L74.784,11.592 Z M81.312,4.512 L81.48,9.768 L79.608,9.768 L79.536,4.512 L81.312,4.512 Z" id="形状"></path>
                    <path d="M100.392,1.248 L115.536,1.248 L115.272,3.48 L100.128,3.48 L100.392,1.248 Z M112.2,18.768 C107.96,19.28 103.984,19.592 100.272,19.704 C99.856,19.72 99.5,19.652 99.204,19.5 C98.908,19.348 98.688,19.144 98.544,18.888 C98.448,18.712 98.4,18.528 98.4,18.336 C98.4,17.888 98.592,17.44 98.976,16.992 C100.832,14.752 102.52,12.44 104.04,10.056 L97.752,10.056 L98.04,7.752 L117.12,7.752 L116.832,10.056 L106.896,10.056 C105.376,12.488 103.656,14.912 101.736,17.328 C102.568,17.312 104.096,17.224 106.32,17.064 C107.856,16.952 109.52,16.776 111.312,16.536 L109.536,12.096 L111.984,12.096 L115.464,20.16 L112.776,20.16 L112.2,18.768 Z" id="形状"></path>
                    <path d="M136.32,8.88 L134.904,20.712 L132.456,20.712 L133.872,8.88 L128.52,8.88 L128.784,6.624 L134.136,6.624 L134.904,0.312 L137.352,0.312 L136.584,6.624 L141.672,6.624 L141.408,8.88 L136.32,8.88 Z M123.48,0.48 L128.544,2.52 L128.208,5.016 L123.168,2.976 L123.48,0.48 Z M125.616,16.224 L125.616,16.344 C125.616,16.44 125.648,16.488 125.712,16.488 C125.792,16.488 125.872,16.456 125.952,16.392 C127.248,15.56 128.312,14.784 129.144,14.064 L129.456,16.608 C128.496,17.392 127.352,18.2 126.024,19.032 C125.48,19.368 124.984,19.536 124.536,19.536 C124.248,19.536 124.008,19.464 123.816,19.32 C123.384,19.048 123.168,18.56 123.168,17.856 C123.168,17.744 123.184,17.544 123.216,17.256 L124.272,8.352 L121.272,8.352 L121.536,6.096 L125.352,6.096 C125.832,6.096 126.184,6.22 126.408,6.468 C126.632,6.716 126.72,7.064 126.672,7.512 L125.616,16.224 Z" id="形状"></path>
                    <path d="M156.36,1.272 L156.192,2.928 L153.216,2.928 L153.96,4.752 L151.824,4.752 L151.152,2.928 L149.64,2.928 C149.272,3.488 148.704,4.296 147.936,5.352 L145.44,5.352 C146.368,4.04 147.008,3.12 147.36,2.592 C147.872,1.84 148.4,0.976 148.944,0 L151.368,0 L150.648,1.272 L156.36,1.272 Z M165.912,1.272 L165.744,2.928 L162.6,2.928 L163.368,4.848 L161.232,4.848 L160.536,2.928 L158.976,2.928 C158.72,3.36 158.336,3.976 157.824,4.776 L155.424,4.776 C156.56,3.096 157.512,1.504 158.28,0 L160.584,0 C160.312,0.576 160.088,1 159.912,1.272 L165.912,1.272 Z M162.696,14.232 L160.104,14.232 L159.96,15.504 L165.024,15.504 L164.832,17.304 L159.744,17.304 L159.312,20.928 L157.104,20.928 L157.536,17.304 L152.208,17.304 C151.856,18.072 151.344,18.772 150.672,19.404 C150,20.036 149.112,20.64 148.008,21.216 L146.184,19.968 C147.112,19.504 147.856,19.06 148.416,18.636 C148.976,18.212 149.424,17.768 149.76,17.304 L144.96,17.304 L145.176,15.504 L150.456,15.504 L150.528,15.24 C150.528,15.112 150.536,15.016 150.552,14.952 L150.6,14.232 L147.408,14.232 L148.296,6.816 C148.36,6.352 148.576,5.968 148.944,5.664 C149.312,5.36 149.736,5.208 150.216,5.208 L161.832,5.208 C162.344,5.208 162.776,5.384 163.128,5.736 C163.304,5.912 163.432,6.112 163.512,6.336 C163.592,6.56 163.616,6.792 163.584,7.032 L162.696,14.232 Z M161.424,6.816 L150.456,6.816 L150.336,7.776 L161.304,7.776 L161.424,6.816 Z M161.112,9.216 L150.168,9.216 L150.048,10.176 L160.992,10.176 L161.112,9.216 Z M149.76,12.6 L160.704,12.6 L160.824,11.616 L149.88,11.616 L149.76,12.6 Z M152.832,14.232 L152.784,15.024 L152.712,15.504 L157.752,15.504 L157.896,14.232 L152.832,14.232 Z" id="形状"></path>
                    <path d="M173.592,9.168 L173.976,6 L176.088,6 L175.704,9.168 L177.912,9.168 L177.672,11.208 L175.464,11.208 L175.176,13.56 C175.512,13.512 176,13.424 176.64,13.296 L177.96,13.032 L177.744,15.144 L176.4,15.408 C175.808,15.52 175.312,15.608 174.912,15.672 L174.336,20.616 L172.224,20.616 L172.776,16.032 C171,16.288 169.592,16.464 168.552,16.56 L168.768,14.472 C169.28,14.424 169.916,14.348 170.676,14.244 C171.436,14.14 172.008,14.064 172.392,14.016 C172.552,13.984 172.76,13.952 173.016,13.92 L173.352,11.208 L170.856,11.208 C170.392,11.208 170.04,11.108 169.8,10.908 C169.56,10.708 169.44,10.44 169.44,10.104 C169.44,9.832 169.528,9.496 169.704,9.096 C170.408,7.496 171.016,5.992 171.528,4.584 L169.56,4.584 L169.8,2.52 L172.248,2.52 C172.664,1.304 172.928,0.504 173.04,0.12 L175.176,0.12 C175.016,0.712 174.76,1.512 174.408,2.52 L178.584,2.52 L178.344,4.584 L173.688,4.584 C172.872,6.664 172.256,8.192 171.84,9.168 L173.592,9.168 Z M183.576,0.192 L182.76,2.784 L187.824,2.784 C188.464,2.784 188.932,2.884 189.228,3.084 C189.524,3.284 189.672,3.592 189.672,4.008 C189.672,4.248 189.608,4.576 189.48,4.992 L188.16,9.168 L185.832,9.168 L187.272,4.824 L182.088,4.824 C181.576,6.312 181.064,7.632 180.552,8.784 L178.224,8.784 C178.704,7.616 179.256,6.16 179.88,4.416 C180.44,2.848 180.912,1.44 181.296,0.192 L183.576,0.192 Z M182.544,6.672 L184.752,6.672 L184.32,9.528 C184.592,11.432 185.136,13.236 185.952,14.94 C186.768,16.644 187.888,18.36 189.312,20.088 L187.08,21.048 C186.168,19.848 185.392,18.644 184.752,17.436 C184.112,16.228 183.584,14.952 183.168,13.608 C182.608,14.984 181.908,16.292 181.068,17.532 C180.228,18.772 179.304,19.896 178.296,20.904 L176.232,19.92 C179.256,16.96 181.192,13.608 182.04,9.864 L182.544,6.672 Z" id="形状"></path>
                    <path d="M213.648,13.536 L207.912,13.536 L207.192,20.904 L204.744,20.904 L205.464,13.536 L199.248,13.536 L199.512,11.304 L205.68,11.304 L206.16,6.6 L203.136,6.6 L202.08,9.72 L199.536,9.72 C200.128,8.28 200.664,6.856 201.144,5.448 C201.592,4.152 202,2.888 202.368,1.656 L204.624,1.656 L203.808,4.44 L206.376,4.44 L206.808,0.048 L209.232,0.048 L208.8,4.44 L213.456,4.44 L213.192,6.6 L208.584,6.6 L208.128,11.304 L213.912,11.304 L213.648,13.536 Z M201.288,0.216 C201.048,0.6 200.832,0.984 200.64,1.368 C200.576,1.48 200.504,1.608 200.424,1.752 C200.344,1.896 200.256,2.048 200.16,2.208 C199.6,3.168 199.248,3.768 199.104,4.008 L197.352,20.832 L194.952,20.832 L196.248,8.64 C195.768,9.344 195.304,10 194.856,10.608 L192.144,10.608 C194.384,7.552 196.584,4.088 198.744,0.216 L201.288,0.216 Z" id="形状"></path>
                    <path d="M227.232,20.832 L224.712,20.832 L225.696,12.912 L217.176,12.912 L217.44,10.608 L225.984,10.608 L226.872,3.408 L219.096,3.408 L219.36,1.2 L237.216,1.2 L236.952,3.408 L229.368,3.408 L228.48,10.608 L237.144,10.608 L236.904,12.912 L228.192,12.912 L227.232,20.832 Z M220.824,4.488 L223.104,4.488 L223.896,9.504 L221.496,9.504 L220.824,4.488 Z M233.304,9.552 L230.928,9.552 L232.872,4.536 L235.248,4.536 L233.304,9.552 Z" id="形状"></path>
                    <path d="M258.096,8.472 C253.568,8.808 248.936,9.016 244.2,9.096 C243.64,9.096 243.204,8.992 242.892,8.784 C242.58,8.576 242.424,8.288 242.424,7.92 C242.424,7.44 242.704,6.944 243.264,6.432 C245.808,4.016 247.864,1.872 249.432,0 L252.552,0 C250.648,2.4 248.504,4.68 246.12,6.84 C249.08,6.824 252.72,6.648 257.04,6.312 L255,2.112 L257.544,2.112 L261.336,9.576 L258.648,9.576 L258.096,8.472 Z M258.336,20.424 L242.544,20.424 L243.432,13.344 C243.592,11.888 244.376,11.16 245.784,11.16 L257.256,11.16 C258.536,11.16 259.176,11.736 259.176,12.888 C259.176,13.08 259.168,13.224 259.152,13.32 L258.336,20.424 Z M245.28,18.216 L256.032,18.216 L256.632,13.272 L245.904,13.272 L245.28,18.216 Z" id="形状"></path>
                </g>
            </g>
        </g>
    </g>
</svg>